<mxfile host="app.diagrams.net" modified="2021-07-28T15:04:10.121Z" agent="5.0 (Windows)" etag="g3kuAJ-MRkP8bjvMYdnN" version="14.9.2" type="github">
  <diagram id="prtHgNgQTEPvFCAcTncT" name="Page-1">
    <mxGraphModel dx="2062" dy="1122" grid="1" gridSize="10" guides="1" tooltips="1" connect="1" arrows="1" fold="1" page="1" pageScale="1" pageWidth="1654" pageHeight="1169" math="0" shadow="0">
      <root>
        <mxCell id="0" />
        <mxCell id="1" parent="0" />
        <mxCell id="dNxyNK7c78bLwvsdeMH5-19" value="GWSL Model architectuur" style="swimlane;html=1;childLayout=stackLayout;resizeParent=1;resizeParentMax=0;horizontal=0;startSize=20;horizontalStack=0;" parent="1" vertex="1">
          <mxGeometry x="10" y="10" width="1630" height="1150" as="geometry">
            <mxRectangle x="120" y="120" width="30" height="50" as="alternateBounds" />
          </mxGeometry>
        </mxCell>
        <mxCell id="dNxyNK7c78bLwvsdeMH5-20" value="GWSL Metamodel (M2)" style="swimlane;html=1;startSize=20;horizontal=0;" parent="dNxyNK7c78bLwvsdeMH5-19" vertex="1">
          <mxGeometry x="20" width="1610" height="520" as="geometry">
            <mxRectangle x="20" width="1540" height="20" as="alternateBounds" />
          </mxGeometry>
        </mxCell>
        <mxCell id="ITeB4xRi5K-im_U4vZZ5-93" value="" style="endArrow=block;endSize=16;endFill=0;html=1;exitX=0.5;exitY=0;exitDx=0;exitDy=0;dashed=1;" parent="dNxyNK7c78bLwvsdeMH5-20" source="ITeB4xRi5K-im_U4vZZ5-81" edge="1">
          <mxGeometry width="160" relative="1" as="geometry">
            <mxPoint x="550" y="190" as="sourcePoint" />
            <mxPoint x="340" y="60" as="targetPoint" />
            <Array as="points">
              <mxPoint x="740" y="140" />
              <mxPoint x="340" y="140" />
            </Array>
          </mxGeometry>
        </mxCell>
        <mxCell id="ITeB4xRi5K-im_U4vZZ5-92" value="" style="endArrow=block;endSize=16;endFill=0;html=1;entryX=0.5;entryY=1;entryDx=0;entryDy=0;exitX=0.5;exitY=0;exitDx=0;exitDy=0;dashed=1;" parent="dNxyNK7c78bLwvsdeMH5-20" source="ITeB4xRi5K-im_U4vZZ5-16" target="ITeB4xRi5K-im_U4vZZ5-38" edge="1">
          <mxGeometry width="160" relative="1" as="geometry">
            <mxPoint x="150" y="170" as="sourcePoint" />
            <mxPoint x="350" y="70" as="targetPoint" />
            <Array as="points">
              <mxPoint x="540" y="140" />
              <mxPoint x="340" y="140" />
            </Array>
          </mxGeometry>
        </mxCell>
        <mxCell id="ITeB4xRi5K-im_U4vZZ5-11" value="gwsl:FysiekObject" style="swimlane;fontStyle=0;childLayout=stackLayout;horizontal=1;startSize=26;fillColor=none;horizontalStack=0;resizeParent=1;resizeParentMax=0;resizeLast=0;collapsible=1;marginBottom=0;fontColor=#0000FF;" parent="dNxyNK7c78bLwvsdeMH5-20" vertex="1">
          <mxGeometry x="60" y="400" width="160" height="52" as="geometry" />
        </mxCell>
        <mxCell id="ITeB4xRi5K-im_U4vZZ5-13" value="" style="endArrow=block;endSize=16;endFill=0;html=1;entryX=0.5;entryY=1;entryDx=0;entryDy=0;" parent="dNxyNK7c78bLwvsdeMH5-20" source="ITeB4xRi5K-im_U4vZZ5-11" target="ITeB4xRi5K-im_U4vZZ5-5" edge="1">
          <mxGeometry width="160" relative="1" as="geometry">
            <mxPoint x="-145" y="400" as="sourcePoint" />
            <mxPoint x="15" y="400" as="targetPoint" />
          </mxGeometry>
        </mxCell>
        <mxCell id="ITeB4xRi5K-im_U4vZZ5-14" value="gwsl:RuimtelijkObject" style="swimlane;fontStyle=0;childLayout=stackLayout;horizontal=1;startSize=26;fillColor=none;horizontalStack=0;resizeParent=1;resizeParentMax=0;resizeLast=0;collapsible=1;marginBottom=0;fontColor=#0000FF;" parent="dNxyNK7c78bLwvsdeMH5-20" vertex="1">
          <mxGeometry x="260" y="400" width="160" height="52" as="geometry" />
        </mxCell>
        <mxCell id="ITeB4xRi5K-im_U4vZZ5-15" value="" style="endArrow=block;endSize=16;endFill=0;html=1;exitX=0.5;exitY=0;exitDx=0;exitDy=0;" parent="dNxyNK7c78bLwvsdeMH5-20" source="ITeB4xRi5K-im_U4vZZ5-14" target="ITeB4xRi5K-im_U4vZZ5-10" edge="1">
          <mxGeometry width="160" relative="1" as="geometry">
            <mxPoint x="-35" y="360" as="sourcePoint" />
            <mxPoint x="-35" y="224" as="targetPoint" />
          </mxGeometry>
        </mxCell>
        <mxCell id="ITeB4xRi5K-im_U4vZZ5-18" value="nen2660:EnumerationType" style="swimlane;fontStyle=1;align=center;verticalAlign=top;childLayout=stackLayout;horizontal=1;startSize=26;horizontalStack=0;resizeParent=1;resizeParentMax=0;resizeLast=0;collapsible=1;marginBottom=0;fontColor=#3399FF;" parent="dNxyNK7c78bLwvsdeMH5-20" vertex="1">
          <mxGeometry x="1260" y="160" width="160" height="34" as="geometry" />
        </mxCell>
        <mxCell id="ITeB4xRi5K-im_U4vZZ5-19" value="" style="line;strokeWidth=1;fillColor=none;align=left;verticalAlign=middle;spacingTop=-1;spacingLeft=3;spacingRight=3;rotatable=0;labelPosition=right;points=[];portConstraint=eastwest;" parent="ITeB4xRi5K-im_U4vZZ5-18" vertex="1">
          <mxGeometry y="26" width="160" height="8" as="geometry" />
        </mxCell>
        <mxCell id="ITeB4xRi5K-im_U4vZZ5-20" value="qudt:QuantityKind" style="swimlane;fontStyle=1;align=center;verticalAlign=top;childLayout=stackLayout;horizontal=1;startSize=26;horizontalStack=0;resizeParent=1;resizeParentMax=0;resizeLast=0;collapsible=1;marginBottom=0;labelBackgroundColor=none;fontColor=#3399FF;" parent="dNxyNK7c78bLwvsdeMH5-20" vertex="1">
          <mxGeometry x="1360" y="214" width="160" height="34" as="geometry" />
        </mxCell>
        <mxCell id="ITeB4xRi5K-im_U4vZZ5-21" value="" style="line;strokeWidth=1;fillColor=none;align=left;verticalAlign=middle;spacingTop=-1;spacingLeft=3;spacingRight=3;rotatable=0;labelPosition=right;points=[];portConstraint=eastwest;labelBackgroundColor=#FF9999;" parent="ITeB4xRi5K-im_U4vZZ5-20" vertex="1">
          <mxGeometry y="26" width="160" height="8" as="geometry" />
        </mxCell>
        <mxCell id="ITeB4xRi5K-im_U4vZZ5-22" value="qudt:Unit" style="swimlane;fontStyle=1;align=center;verticalAlign=top;childLayout=stackLayout;horizontal=1;startSize=26;horizontalStack=0;resizeParent=1;resizeParentMax=0;resizeLast=0;collapsible=1;marginBottom=0;labelBackgroundColor=none;fontColor=#3399FF;" parent="dNxyNK7c78bLwvsdeMH5-20" vertex="1">
          <mxGeometry x="1360" y="290" width="160" height="34" as="geometry" />
        </mxCell>
        <mxCell id="ITeB4xRi5K-im_U4vZZ5-23" value="" style="line;strokeWidth=1;fillColor=none;align=left;verticalAlign=middle;spacingTop=-1;spacingLeft=3;spacingRight=3;rotatable=0;labelPosition=right;points=[];portConstraint=eastwest;labelBackgroundColor=#FF9999;" parent="ITeB4xRi5K-im_U4vZZ5-22" vertex="1">
          <mxGeometry y="26" width="160" height="8" as="geometry" />
        </mxCell>
        <mxCell id="ITeB4xRi5K-im_U4vZZ5-25" value="rdf:Property" style="swimlane;fontStyle=1;align=center;verticalAlign=top;childLayout=stackLayout;horizontal=1;startSize=26;horizontalStack=0;resizeParent=1;resizeParentMax=0;resizeLast=0;collapsible=1;marginBottom=0;strokeColor=#050302;fillColor=#FFFFFF;labelBackgroundColor=none;labelBorderColor=none;fontColor=#A9C4EB;" parent="dNxyNK7c78bLwvsdeMH5-20" vertex="1">
          <mxGeometry x="1060" y="26" width="160" height="34" as="geometry" />
        </mxCell>
        <mxCell id="ITeB4xRi5K-im_U4vZZ5-26" value="" style="line;strokeWidth=1;fillColor=none;align=left;verticalAlign=middle;spacingTop=-1;spacingLeft=3;spacingRight=3;rotatable=0;labelPosition=right;points=[];portConstraint=eastwest;" parent="ITeB4xRi5K-im_U4vZZ5-25" vertex="1">
          <mxGeometry y="26" width="160" height="8" as="geometry" />
        </mxCell>
        <mxCell id="ITeB4xRi5K-im_U4vZZ5-30" value="gwsl:GeometrischeEntiteit" style="swimlane;fontStyle=0;childLayout=stackLayout;horizontal=1;startSize=26;fillColor=none;horizontalStack=0;resizeParent=1;resizeParentMax=0;resizeLast=0;collapsible=1;marginBottom=0;fontColor=#0000FF;" parent="dNxyNK7c78bLwvsdeMH5-20" vertex="1">
          <mxGeometry x="460" y="400" width="160" height="52" as="geometry" />
        </mxCell>
        <mxCell id="ITeB4xRi5K-im_U4vZZ5-31" value="" style="endArrow=block;endSize=16;endFill=0;html=1;exitX=0.5;exitY=0;exitDx=0;exitDy=0;" parent="dNxyNK7c78bLwvsdeMH5-20" source="ITeB4xRi5K-im_U4vZZ5-30" target="ITeB4xRi5K-im_U4vZZ5-17" edge="1">
          <mxGeometry width="160" relative="1" as="geometry">
            <mxPoint x="434.40999999999985" y="350" as="sourcePoint" />
            <mxPoint x="434.40999999999985" y="214" as="targetPoint" />
          </mxGeometry>
        </mxCell>
        <mxCell id="ITeB4xRi5K-im_U4vZZ5-40" value="sh:NodeShape" style="swimlane;fontStyle=1;align=center;verticalAlign=top;childLayout=stackLayout;horizontal=1;startSize=26;horizontalStack=0;resizeParent=1;resizeParentMax=0;resizeLast=0;collapsible=1;marginBottom=0;labelBackgroundColor=none;labelBorderColor=none;fontColor=#A9C4EB;" parent="dNxyNK7c78bLwvsdeMH5-20" vertex="1">
          <mxGeometry x="60" y="60" width="160" height="34" as="geometry" />
        </mxCell>
        <mxCell id="ITeB4xRi5K-im_U4vZZ5-41" value="" style="line;strokeWidth=1;fillColor=none;align=left;verticalAlign=middle;spacingTop=-1;spacingLeft=3;spacingRight=3;rotatable=0;labelPosition=right;points=[];portConstraint=eastwest;" parent="ITeB4xRi5K-im_U4vZZ5-40" vertex="1">
          <mxGeometry y="26" width="160" height="8" as="geometry" />
        </mxCell>
        <mxCell id="ITeB4xRi5K-im_U4vZZ5-45" value="" style="endArrow=block;endSize=16;endFill=0;html=1;entryX=0.5;entryY=1;entryDx=0;entryDy=0;exitX=0;exitY=0.5;exitDx=0;exitDy=0;" parent="dNxyNK7c78bLwvsdeMH5-20" source="ITeB4xRi5K-im_U4vZZ5-22" target="ITeB4xRi5K-im_U4vZZ5-18" edge="1">
          <mxGeometry width="160" relative="1" as="geometry">
            <mxPoint x="290" y="250" as="sourcePoint" />
            <mxPoint x="290" y="204.00000000000023" as="targetPoint" />
            <Array as="points">
              <mxPoint x="1340" y="307" />
              <mxPoint x="1340" y="220" />
            </Array>
          </mxGeometry>
        </mxCell>
        <mxCell id="ITeB4xRi5K-im_U4vZZ5-46" value="" style="endArrow=block;endSize=16;endFill=0;html=1;entryX=0.5;entryY=1;entryDx=0;entryDy=0;exitX=0;exitY=0.5;exitDx=0;exitDy=0;" parent="dNxyNK7c78bLwvsdeMH5-20" source="ITeB4xRi5K-im_U4vZZ5-20" target="ITeB4xRi5K-im_U4vZZ5-18" edge="1">
          <mxGeometry width="160" relative="1" as="geometry">
            <mxPoint x="1300" y="270" as="sourcePoint" />
            <mxPoint x="1350" y="204.00000000000023" as="targetPoint" />
            <Array as="points">
              <mxPoint x="1340" y="231" />
            </Array>
          </mxGeometry>
        </mxCell>
        <mxCell id="ITeB4xRi5K-im_U4vZZ5-79" value="sh:PropertyShape" style="swimlane;fontStyle=1;align=center;verticalAlign=top;childLayout=stackLayout;horizontal=1;startSize=26;horizontalStack=0;resizeParent=1;resizeParentMax=0;resizeLast=0;collapsible=1;marginBottom=0;strokeColor=#050302;fillColor=#FFFFFF;labelBackgroundColor=none;labelBorderColor=none;fontColor=#A9C4EB;" parent="dNxyNK7c78bLwvsdeMH5-20" vertex="1">
          <mxGeometry x="860" y="60" width="160" height="34" as="geometry" />
        </mxCell>
        <mxCell id="ITeB4xRi5K-im_U4vZZ5-80" value="" style="line;strokeWidth=1;fillColor=none;align=left;verticalAlign=middle;spacingTop=-1;spacingLeft=3;spacingRight=3;rotatable=0;labelPosition=right;points=[];portConstraint=eastwest;" parent="ITeB4xRi5K-im_U4vZZ5-79" vertex="1">
          <mxGeometry y="26" width="160" height="8" as="geometry" />
        </mxCell>
        <mxCell id="ITeB4xRi5K-im_U4vZZ5-5" value="nen2660:DiscreteObject" style="swimlane;fontStyle=1;align=center;verticalAlign=top;childLayout=stackLayout;horizontal=1;startSize=26;horizontalStack=0;resizeParent=1;resizeParentMax=0;resizeLast=0;collapsible=1;marginBottom=0;fontColor=#3399FF;" parent="dNxyNK7c78bLwvsdeMH5-20" vertex="1">
          <mxGeometry x="60" y="240" width="160" height="34" as="geometry" />
        </mxCell>
        <mxCell id="ITeB4xRi5K-im_U4vZZ5-6" value="" style="line;strokeWidth=1;fillColor=none;align=left;verticalAlign=middle;spacingTop=-1;spacingLeft=3;spacingRight=3;rotatable=0;labelPosition=right;points=[];portConstraint=eastwest;" parent="ITeB4xRi5K-im_U4vZZ5-5" vertex="1">
          <mxGeometry y="26" width="160" height="8" as="geometry" />
        </mxCell>
        <mxCell id="ITeB4xRi5K-im_U4vZZ5-9" value="nen2660:SpatialRegion" style="swimlane;fontStyle=1;align=center;verticalAlign=top;childLayout=stackLayout;horizontal=1;startSize=26;horizontalStack=0;resizeParent=1;resizeParentMax=0;resizeLast=0;collapsible=1;marginBottom=0;fontColor=#3399FF;" parent="dNxyNK7c78bLwvsdeMH5-20" vertex="1">
          <mxGeometry x="260" y="240" width="160" height="34" as="geometry" />
        </mxCell>
        <mxCell id="ITeB4xRi5K-im_U4vZZ5-10" value="" style="line;strokeWidth=1;fillColor=none;align=left;verticalAlign=middle;spacingTop=-1;spacingLeft=3;spacingRight=3;rotatable=0;labelPosition=right;points=[];portConstraint=eastwest;fontColor=#3399FF;" parent="ITeB4xRi5K-im_U4vZZ5-9" vertex="1">
          <mxGeometry y="26" width="160" height="8" as="geometry" />
        </mxCell>
        <mxCell id="ITeB4xRi5K-im_U4vZZ5-1" style="edgeStyle=orthogonalEdgeStyle;rounded=1;orthogonalLoop=1;jettySize=auto;html=1;entryX=0.25;entryY=1;entryDx=0;entryDy=0;startArrow=classic;startFill=1;endArrow=none;endFill=0;exitX=0.75;exitY=1;exitDx=0;exitDy=0;" parent="dNxyNK7c78bLwvsdeMH5-20" source="ITeB4xRi5K-im_U4vZZ5-5" target="ITeB4xRi5K-im_U4vZZ5-9" edge="1">
          <mxGeometry relative="1" as="geometry">
            <mxPoint x="220" y="297" as="sourcePoint" />
            <mxPoint x="300" y="297" as="targetPoint" />
            <Array as="points">
              <mxPoint x="180" y="320" />
              <mxPoint x="300" y="320" />
            </Array>
          </mxGeometry>
        </mxCell>
        <mxCell id="ITeB4xRi5K-im_U4vZZ5-2" value="nen2660:contains" style="edgeLabel;html=1;align=center;verticalAlign=middle;resizable=0;points=[];" parent="ITeB4xRi5K-im_U4vZZ5-1" vertex="1" connectable="0">
          <mxGeometry x="0.2111" y="-2" relative="1" as="geometry">
            <mxPoint x="-23" y="-3" as="offset" />
          </mxGeometry>
        </mxCell>
        <mxCell id="ITeB4xRi5K-im_U4vZZ5-16" value="nen2660:GeometricEntity" style="swimlane;fontStyle=1;align=center;verticalAlign=top;childLayout=stackLayout;horizontal=1;startSize=26;horizontalStack=0;resizeParent=1;resizeParentMax=0;resizeLast=0;collapsible=1;marginBottom=0;fontColor=#3399FF;" parent="dNxyNK7c78bLwvsdeMH5-20" vertex="1">
          <mxGeometry x="460" y="180" width="160" height="34" as="geometry" />
        </mxCell>
        <mxCell id="ITeB4xRi5K-im_U4vZZ5-17" value="" style="line;strokeWidth=1;fillColor=none;align=left;verticalAlign=middle;spacingTop=-1;spacingLeft=3;spacingRight=3;rotatable=0;labelPosition=right;points=[];portConstraint=eastwest;" parent="ITeB4xRi5K-im_U4vZZ5-16" vertex="1">
          <mxGeometry y="26" width="160" height="8" as="geometry" />
        </mxCell>
        <mxCell id="ITeB4xRi5K-im_U4vZZ5-81" value="nen2660:InformationObject" style="swimlane;fontStyle=1;align=center;verticalAlign=top;childLayout=stackLayout;horizontal=1;startSize=26;horizontalStack=0;resizeParent=1;resizeParentMax=0;resizeLast=0;collapsible=1;marginBottom=0;fontColor=#3399FF;" parent="dNxyNK7c78bLwvsdeMH5-20" vertex="1">
          <mxGeometry x="660" y="180" width="160" height="34" as="geometry" />
        </mxCell>
        <mxCell id="ITeB4xRi5K-im_U4vZZ5-82" value="" style="line;strokeWidth=1;fillColor=none;align=left;verticalAlign=middle;spacingTop=-1;spacingLeft=3;spacingRight=3;rotatable=0;labelPosition=right;points=[];portConstraint=eastwest;" parent="ITeB4xRi5K-im_U4vZZ5-81" vertex="1">
          <mxGeometry y="26" width="160" height="8" as="geometry" />
        </mxCell>
        <mxCell id="ITeB4xRi5K-im_U4vZZ5-34" value="nen2660:ConcreteConcept" style="swimlane;fontStyle=1;align=center;verticalAlign=top;childLayout=stackLayout;horizontal=1;startSize=26;horizontalStack=0;resizeParent=1;resizeParentMax=0;resizeLast=0;collapsible=1;marginBottom=0;fontColor=#3399FF;" parent="dNxyNK7c78bLwvsdeMH5-20" vertex="1">
          <mxGeometry x="60" y="160" width="160" height="34" as="geometry" />
        </mxCell>
        <mxCell id="ITeB4xRi5K-im_U4vZZ5-35" value="" style="line;strokeWidth=1;fillColor=none;align=left;verticalAlign=middle;spacingTop=-1;spacingLeft=3;spacingRight=3;rotatable=0;labelPosition=right;points=[];portConstraint=eastwest;" parent="ITeB4xRi5K-im_U4vZZ5-34" vertex="1">
          <mxGeometry y="26" width="160" height="8" as="geometry" />
        </mxCell>
        <mxCell id="ITeB4xRi5K-im_U4vZZ5-36" value="" style="endArrow=block;endSize=16;endFill=0;html=1;entryX=0.5;entryY=1;entryDx=0;entryDy=0;exitX=0.5;exitY=0;exitDx=0;exitDy=0;" parent="dNxyNK7c78bLwvsdeMH5-20" source="ITeB4xRi5K-im_U4vZZ5-5" target="ITeB4xRi5K-im_U4vZZ5-34" edge="1">
          <mxGeometry width="160" relative="1" as="geometry">
            <mxPoint x="140" y="290" as="sourcePoint" />
            <mxPoint x="150" y="324.0000000000002" as="targetPoint" />
          </mxGeometry>
        </mxCell>
        <mxCell id="ITeB4xRi5K-im_U4vZZ5-7" style="edgeStyle=orthogonalEdgeStyle;rounded=1;orthogonalLoop=1;jettySize=auto;html=1;startArrow=none;startFill=0;endArrow=classic;endFill=1;entryX=0.25;entryY=1;entryDx=0;entryDy=0;" parent="dNxyNK7c78bLwvsdeMH5-20" target="ITeB4xRi5K-im_U4vZZ5-16" edge="1">
          <mxGeometry relative="1" as="geometry">
            <mxPoint x="220" y="186" as="sourcePoint" />
            <mxPoint x="470" y="210" as="targetPoint" />
            <Array as="points">
              <mxPoint x="260" y="186" />
              <mxPoint x="260" y="230" />
              <mxPoint x="500" y="230" />
            </Array>
          </mxGeometry>
        </mxCell>
        <mxCell id="ITeB4xRi5K-im_U4vZZ5-8" value="nen2660:hasBoundary" style="edgeLabel;html=1;align=center;verticalAlign=middle;resizable=0;points=[];" parent="ITeB4xRi5K-im_U4vZZ5-7" vertex="1" connectable="0">
          <mxGeometry x="-0.1381" y="-3" relative="1" as="geometry">
            <mxPoint x="42" y="-6" as="offset" />
          </mxGeometry>
        </mxCell>
        <mxCell id="ITeB4xRi5K-im_U4vZZ5-44" value="rdf:type" style="endArrow=block;endSize=16;endFill=0;html=1;entryX=0.5;entryY=1;entryDx=0;entryDy=0;exitX=0.5;exitY=0;exitDx=0;exitDy=0;dashed=1;" parent="dNxyNK7c78bLwvsdeMH5-20" source="ITeB4xRi5K-im_U4vZZ5-34" target="ITeB4xRi5K-im_U4vZZ5-40" edge="1">
          <mxGeometry width="160" relative="1" as="geometry">
            <mxPoint x="150" y="130" as="sourcePoint" />
            <mxPoint x="150" y="64.00000000000023" as="targetPoint" />
          </mxGeometry>
        </mxCell>
        <mxCell id="ITeB4xRi5K-im_U4vZZ5-83" style="edgeStyle=orthogonalEdgeStyle;rounded=1;orthogonalLoop=1;jettySize=auto;html=1;exitX=1;exitY=0.25;exitDx=0;exitDy=0;entryX=0.25;entryY=1;entryDx=0;entryDy=0;startArrow=none;startFill=0;endArrow=classic;endFill=1;jumpStyle=arc;" parent="dNxyNK7c78bLwvsdeMH5-20" source="ITeB4xRi5K-im_U4vZZ5-34" target="ITeB4xRi5K-im_U4vZZ5-81" edge="1">
          <mxGeometry relative="1" as="geometry">
            <mxPoint x="230" y="187" as="sourcePoint" />
            <mxPoint x="550" y="187" as="targetPoint" />
            <Array as="points">
              <mxPoint x="240" y="169" />
              <mxPoint x="640" y="169" />
              <mxPoint x="640" y="230" />
              <mxPoint x="700" y="230" />
            </Array>
          </mxGeometry>
        </mxCell>
        <mxCell id="ITeB4xRi5K-im_U4vZZ5-84" value="nen2660:isDescribedBy" style="edgeLabel;html=1;align=center;verticalAlign=middle;resizable=0;points=[];" parent="ITeB4xRi5K-im_U4vZZ5-83" vertex="1" connectable="0">
          <mxGeometry x="-0.1381" y="-3" relative="1" as="geometry">
            <mxPoint x="-90" y="-3" as="offset" />
          </mxGeometry>
        </mxCell>
        <mxCell id="ITeB4xRi5K-im_U4vZZ5-38" value="rdfs:Class" style="swimlane;fontStyle=1;align=center;verticalAlign=top;childLayout=stackLayout;horizontal=1;startSize=26;horizontalStack=0;resizeParent=1;resizeParentMax=0;resizeLast=0;collapsible=1;marginBottom=0;labelBackgroundColor=none;labelBorderColor=none;fontColor=#A9C4EB;" parent="dNxyNK7c78bLwvsdeMH5-20" vertex="1">
          <mxGeometry x="260" y="26" width="160" height="34" as="geometry" />
        </mxCell>
        <mxCell id="ITeB4xRi5K-im_U4vZZ5-39" value="" style="line;strokeWidth=1;fillColor=none;align=left;verticalAlign=middle;spacingTop=-1;spacingLeft=3;spacingRight=3;rotatable=0;labelPosition=right;points=[];portConstraint=eastwest;" parent="ITeB4xRi5K-im_U4vZZ5-38" vertex="1">
          <mxGeometry y="26" width="160" height="8" as="geometry" />
        </mxCell>
        <mxCell id="ITeB4xRi5K-im_U4vZZ5-42" value="rdf:type" style="endArrow=block;endSize=16;endFill=0;html=1;exitX=0.5;exitY=0;exitDx=0;exitDy=0;dashed=1;" parent="dNxyNK7c78bLwvsdeMH5-20" source="ITeB4xRi5K-im_U4vZZ5-34" edge="1">
          <mxGeometry x="0.7333" width="160" relative="1" as="geometry">
            <mxPoint x="150" y="210" as="sourcePoint" />
            <mxPoint x="340" y="60" as="targetPoint" />
            <Array as="points">
              <mxPoint x="140" y="140" />
              <mxPoint x="340" y="140" />
            </Array>
            <mxPoint as="offset" />
          </mxGeometry>
        </mxCell>
        <mxCell id="ITeB4xRi5K-im_U4vZZ5-86" value="gwsl:InformatieObject" style="swimlane;fontStyle=0;childLayout=stackLayout;horizontal=1;startSize=26;fillColor=none;horizontalStack=0;resizeParent=1;resizeParentMax=0;resizeLast=0;collapsible=1;marginBottom=0;fontColor=#0000FF;" parent="dNxyNK7c78bLwvsdeMH5-20" vertex="1">
          <mxGeometry x="660" y="400" width="160" height="52" as="geometry" />
        </mxCell>
        <mxCell id="ITeB4xRi5K-im_U4vZZ5-87" value="" style="endArrow=block;endSize=16;endFill=0;html=1;exitX=0.5;exitY=0;exitDx=0;exitDy=0;entryX=0.5;entryY=1;entryDx=0;entryDy=0;" parent="dNxyNK7c78bLwvsdeMH5-20" source="ITeB4xRi5K-im_U4vZZ5-86" target="ITeB4xRi5K-im_U4vZZ5-81" edge="1">
          <mxGeometry width="160" relative="1" as="geometry">
            <mxPoint x="550" y="410" as="sourcePoint" />
            <mxPoint x="550" y="183.99999999999977" as="targetPoint" />
          </mxGeometry>
        </mxCell>
        <mxCell id="ITeB4xRi5K-im_U4vZZ5-101" value="gwsl:DomeinwaardeLijst" style="swimlane;fontStyle=0;childLayout=stackLayout;horizontal=1;startSize=26;horizontalStack=0;resizeParent=1;resizeParentMax=0;resizeLast=0;collapsible=1;marginBottom=0;strokeColor=#050302;fillColor=#FFFFFF;fontColor=#0000FF;" parent="dNxyNK7c78bLwvsdeMH5-20" vertex="1">
          <mxGeometry x="1360" y="404" width="160" height="48" as="geometry" />
        </mxCell>
        <mxCell id="ITeB4xRi5K-im_U4vZZ5-102" value="" style="endArrow=block;endSize=16;endFill=0;html=1;entryX=0.5;entryY=1;entryDx=0;entryDy=0;exitX=0;exitY=0.5;exitDx=0;exitDy=0;" parent="dNxyNK7c78bLwvsdeMH5-20" source="ITeB4xRi5K-im_U4vZZ5-101" target="ITeB4xRi5K-im_U4vZZ5-18" edge="1">
          <mxGeometry width="160" relative="1" as="geometry">
            <mxPoint x="1370" y="347" as="sourcePoint" />
            <mxPoint x="1350" y="204" as="targetPoint" />
            <Array as="points">
              <mxPoint x="1340" y="428" />
            </Array>
          </mxGeometry>
        </mxCell>
        <mxCell id="ITeB4xRi5K-im_U4vZZ5-95" value="" style="endArrow=classic;html=1;exitX=0.75;exitY=1;exitDx=0;exitDy=0;entryX=0.25;entryY=1;entryDx=0;entryDy=0;jumpStyle=arc;" parent="dNxyNK7c78bLwvsdeMH5-20" source="ITeB4xRi5K-im_U4vZZ5-40" target="ITeB4xRi5K-im_U4vZZ5-79" edge="1">
          <mxGeometry width="50" height="50" relative="1" as="geometry">
            <mxPoint x="430" y="53" as="sourcePoint" />
            <mxPoint x="1070" y="53" as="targetPoint" />
            <Array as="points">
              <mxPoint x="180" y="120" />
              <mxPoint x="900" y="120" />
            </Array>
          </mxGeometry>
        </mxCell>
        <mxCell id="ITeB4xRi5K-im_U4vZZ5-96" value="sh:property" style="edgeLabel;html=1;align=center;verticalAlign=middle;resizable=0;points=[];" parent="ITeB4xRi5K-im_U4vZZ5-95" vertex="1" connectable="0">
          <mxGeometry x="0.6088" y="1" relative="1" as="geometry">
            <mxPoint as="offset" />
          </mxGeometry>
        </mxCell>
        <mxCell id="ITeB4xRi5K-im_U4vZZ5-109" value="" style="endArrow=block;endSize=16;endFill=0;html=1;entryX=0.5;entryY=1;entryDx=0;entryDy=0;exitX=0.5;exitY=0;exitDx=0;exitDy=0;dashed=1;" parent="dNxyNK7c78bLwvsdeMH5-19" source="ITeB4xRi5K-im_U4vZZ5-105" target="ITeB4xRi5K-im_U4vZZ5-110" edge="1">
          <mxGeometry width="160" relative="1" as="geometry">
            <mxPoint x="170" y="409.9999999999998" as="sourcePoint" />
            <mxPoint x="170" y="284" as="targetPoint" />
          </mxGeometry>
        </mxCell>
        <mxCell id="ITeB4xRi5K-im_U4vZZ5-111" value="rdf:type" style="edgeLabel;html=1;align=center;verticalAlign=middle;resizable=0;points=[];" parent="ITeB4xRi5K-im_U4vZZ5-109" vertex="1" connectable="0">
          <mxGeometry x="0.3631" y="-1" relative="1" as="geometry">
            <mxPoint as="offset" />
          </mxGeometry>
        </mxCell>
        <mxCell id="ITeB4xRi5K-im_U4vZZ5-112" value="" style="endArrow=block;endSize=16;endFill=0;html=1;entryX=0.5;entryY=1;entryDx=0;entryDy=0;exitX=0.5;exitY=0;exitDx=0;exitDy=0;" parent="dNxyNK7c78bLwvsdeMH5-19" source="ITeB4xRi5K-im_U4vZZ5-110" target="ITeB4xRi5K-im_U4vZZ5-11" edge="1">
          <mxGeometry width="160" relative="1" as="geometry">
            <mxPoint x="170" y="930" as="sourcePoint" />
            <mxPoint x="170" y="632" as="targetPoint" />
          </mxGeometry>
        </mxCell>
        <mxCell id="ITeB4xRi5K-im_U4vZZ5-117" value="" style="endArrow=block;endSize=16;endFill=0;html=1;entryX=0.5;entryY=1;entryDx=0;entryDy=0;exitX=0.5;exitY=0;exitDx=0;exitDy=0;" parent="dNxyNK7c78bLwvsdeMH5-19" source="ITeB4xRi5K-im_U4vZZ5-116" target="ITeB4xRi5K-im_U4vZZ5-14" edge="1">
          <mxGeometry width="160" relative="1" as="geometry">
            <mxPoint x="170" y="640" as="sourcePoint" />
            <mxPoint x="170" y="462" as="targetPoint" />
          </mxGeometry>
        </mxCell>
        <mxCell id="ITeB4xRi5K-im_U4vZZ5-119" value="" style="endArrow=block;endSize=16;endFill=0;html=1;entryX=0.5;entryY=1;entryDx=0;entryDy=0;exitX=0.5;exitY=0;exitDx=0;exitDy=0;dashed=1;" parent="dNxyNK7c78bLwvsdeMH5-19" source="ITeB4xRi5K-im_U4vZZ5-114" target="ITeB4xRi5K-im_U4vZZ5-116" edge="1">
          <mxGeometry width="160" relative="1" as="geometry">
            <mxPoint x="370" y="640" as="sourcePoint" />
            <mxPoint x="370" y="462" as="targetPoint" />
          </mxGeometry>
        </mxCell>
        <mxCell id="ITeB4xRi5K-im_U4vZZ5-120" value="rdf:type" style="edgeLabel;html=1;align=center;verticalAlign=middle;resizable=0;points=[];" parent="ITeB4xRi5K-im_U4vZZ5-119" vertex="1" connectable="0">
          <mxGeometry x="0.3631" y="-1" relative="1" as="geometry">
            <mxPoint as="offset" />
          </mxGeometry>
        </mxCell>
        <mxCell id="ITeB4xRi5K-im_U4vZZ5-32" value="nen2660:hasQuantityKind" style="edgeStyle=orthogonalEdgeStyle;rounded=1;orthogonalLoop=1;jettySize=auto;html=1;entryX=0.25;entryY=1;entryDx=0;entryDy=0;fillColor=#f8cecc;jumpStyle=arc;strokeColor=#0A0504;exitX=0.5;exitY=0;exitDx=0;exitDy=0;" parent="dNxyNK7c78bLwvsdeMH5-19" source="jTv7qT2MNvlc-mNZcFPQ-25" target="ITeB4xRi5K-im_U4vZZ5-20" edge="1">
          <mxGeometry x="0.3322" relative="1" as="geometry">
            <mxPoint x="1355" y="296" as="sourcePoint" />
            <mxPoint x="1730" y="404" as="targetPoint" />
            <Array as="points">
              <mxPoint x="750" y="540" />
              <mxPoint x="1200" y="540" />
              <mxPoint x="1200" y="300" />
              <mxPoint x="1270" y="300" />
              <mxPoint x="1270" y="270" />
              <mxPoint x="1420" y="270" />
            </Array>
            <mxPoint as="offset" />
          </mxGeometry>
        </mxCell>
        <mxCell id="dNxyNK7c78bLwvsdeMH5-21" value="GWSL Ontologie (M1)" style="swimlane;html=1;startSize=20;horizontal=0;" parent="dNxyNK7c78bLwvsdeMH5-19" vertex="1">
          <mxGeometry x="20" y="520" width="1610" height="400" as="geometry">
            <mxRectangle x="20" y="520" width="1540" height="20" as="alternateBounds" />
          </mxGeometry>
        </mxCell>
        <mxCell id="jTv7qT2MNvlc-mNZcFPQ-32" style="edgeStyle=orthogonalEdgeStyle;rounded=1;jumpStyle=arc;orthogonalLoop=1;jettySize=auto;html=1;entryX=0;entryY=0.5;entryDx=0;entryDy=0;fontColor=#000000;" edge="1" parent="dNxyNK7c78bLwvsdeMH5-21" source="ITeB4xRi5K-im_U4vZZ5-110" target="jTv7qT2MNvlc-mNZcFPQ-24">
          <mxGeometry relative="1" as="geometry" />
        </mxCell>
        <mxCell id="jTv7qT2MNvlc-mNZcFPQ-33" value="sh:property" style="edgeLabel;html=1;align=center;verticalAlign=middle;resizable=0;points=[];fontColor=#000000;" vertex="1" connectable="0" parent="jTv7qT2MNvlc-mNZcFPQ-32">
          <mxGeometry x="0.4615" y="-2" relative="1" as="geometry">
            <mxPoint as="offset" />
          </mxGeometry>
        </mxCell>
        <mxCell id="ITeB4xRi5K-im_U4vZZ5-110" value="gwsl:Armatuur" style="swimlane;fontStyle=0;childLayout=stackLayout;horizontal=1;startSize=26;fillColor=none;horizontalStack=0;resizeParent=1;resizeParentMax=0;resizeLast=0;collapsible=1;marginBottom=0;fontColor=#994C00;" parent="dNxyNK7c78bLwvsdeMH5-21" vertex="1">
          <mxGeometry x="60" y="110" width="160" height="52" as="geometry" />
        </mxCell>
        <mxCell id="ITeB4xRi5K-im_U4vZZ5-116" value="gwsl:Gebiedsindeling" style="swimlane;fontStyle=0;childLayout=stackLayout;horizontal=1;startSize=26;fillColor=none;horizontalStack=0;resizeParent=1;resizeParentMax=0;resizeLast=0;collapsible=1;marginBottom=0;fontColor=#994C00;" parent="dNxyNK7c78bLwvsdeMH5-21" vertex="1">
          <mxGeometry x="260" y="110" width="160" height="52" as="geometry" />
        </mxCell>
        <mxCell id="ITeB4xRi5K-im_U4vZZ5-131" value="gwsl:opleverDatum" style="swimlane;fontStyle=0;childLayout=stackLayout;horizontal=1;startSize=26;fillColor=none;horizontalStack=0;resizeParent=1;resizeParentMax=0;resizeLast=0;collapsible=1;marginBottom=0;fontColor=#994C00;" parent="dNxyNK7c78bLwvsdeMH5-21" vertex="1">
          <mxGeometry x="1060" y="110" width="160" height="52" as="geometry" />
        </mxCell>
        <mxCell id="ITeB4xRi5K-im_U4vZZ5-142" value="+ sh:datatype (xsd:date)" style="text;strokeColor=none;fillColor=none;align=left;verticalAlign=top;spacingLeft=4;spacingRight=4;overflow=hidden;rotatable=0;points=[[0,0.5],[1,0.5]];portConstraint=eastwest;" parent="dNxyNK7c78bLwvsdeMH5-21" vertex="1">
          <mxGeometry x="860" y="136" width="160" height="26" as="geometry" />
        </mxCell>
        <mxCell id="jTv7qT2MNvlc-mNZcFPQ-11" value="gwsl:GebiedstypeType" style="swimlane;fontStyle=0;childLayout=stackLayout;horizontal=1;startSize=26;fillColor=none;horizontalStack=0;resizeParent=1;resizeParentMax=0;resizeLast=0;collapsible=1;marginBottom=0;fontColor=#994C00;" vertex="1" parent="dNxyNK7c78bLwvsdeMH5-21">
          <mxGeometry x="1360" y="110" width="160" height="52" as="geometry" />
        </mxCell>
        <mxCell id="jTv7qT2MNvlc-mNZcFPQ-13" value="gwsl:gebiedsType" style="swimlane;fontStyle=0;childLayout=stackLayout;horizontal=1;startSize=26;fillColor=none;horizontalStack=0;resizeParent=1;resizeParentMax=0;resizeLast=0;collapsible=1;marginBottom=0;fontColor=#994C00;" vertex="1" parent="dNxyNK7c78bLwvsdeMH5-21">
          <mxGeometry x="1130" y="210" width="160" height="52" as="geometry" />
        </mxCell>
        <mxCell id="ITeB4xRi5K-im_U4vZZ5-103" style="edgeStyle=orthogonalEdgeStyle;rounded=1;jumpStyle=arc;orthogonalLoop=1;jettySize=auto;html=1;exitX=1;exitY=0.75;exitDx=0;exitDy=0;entryX=0.25;entryY=1;entryDx=0;entryDy=0;" parent="dNxyNK7c78bLwvsdeMH5-21" source="jTv7qT2MNvlc-mNZcFPQ-13" target="jTv7qT2MNvlc-mNZcFPQ-11" edge="1">
          <mxGeometry relative="1" as="geometry">
            <mxPoint x="1400" y="-80" as="targetPoint" />
            <Array as="points">
              <mxPoint x="1320" y="249" />
              <mxPoint x="1320" y="180" />
              <mxPoint x="1400" y="180" />
            </Array>
          </mxGeometry>
        </mxCell>
        <mxCell id="ITeB4xRi5K-im_U4vZZ5-104" value="sh:class" style="edgeLabel;html=1;align=center;verticalAlign=middle;resizable=0;points=[];" parent="ITeB4xRi5K-im_U4vZZ5-103" vertex="1" connectable="0">
          <mxGeometry x="0.5143" relative="1" as="geometry">
            <mxPoint x="-21" as="offset" />
          </mxGeometry>
        </mxCell>
        <mxCell id="jTv7qT2MNvlc-mNZcFPQ-19" value="gwsl:AgrarischGebied" style="swimlane;fontStyle=0;childLayout=stackLayout;horizontal=1;startSize=26;fillColor=none;horizontalStack=0;resizeParent=1;resizeParentMax=0;resizeLast=0;collapsible=1;marginBottom=0;fontColor=#994C00;" vertex="1" parent="dNxyNK7c78bLwvsdeMH5-21">
          <mxGeometry x="1360" y="210" width="160" height="52" as="geometry" />
        </mxCell>
        <mxCell id="jTv7qT2MNvlc-mNZcFPQ-20" value="" style="endArrow=block;endSize=16;endFill=0;html=1;exitX=0.5;exitY=0;exitDx=0;exitDy=0;dashed=1;entryX=0.5;entryY=1;entryDx=0;entryDy=0;" edge="1" parent="dNxyNK7c78bLwvsdeMH5-21" source="jTv7qT2MNvlc-mNZcFPQ-19" target="jTv7qT2MNvlc-mNZcFPQ-11">
          <mxGeometry x="-0.5652" width="160" relative="1" as="geometry">
            <mxPoint x="1150" y="120" as="sourcePoint" />
            <mxPoint x="1150" y="-440" as="targetPoint" />
            <mxPoint as="offset" />
            <Array as="points" />
          </mxGeometry>
        </mxCell>
        <mxCell id="jTv7qT2MNvlc-mNZcFPQ-21" value="rdf:type" style="edgeLabel;html=1;align=center;verticalAlign=middle;resizable=0;points=[];" vertex="1" connectable="0" parent="jTv7qT2MNvlc-mNZcFPQ-20">
          <mxGeometry x="0.1231" y="3" relative="1" as="geometry">
            <mxPoint x="3" y="3" as="offset" />
          </mxGeometry>
        </mxCell>
        <mxCell id="jTv7qT2MNvlc-mNZcFPQ-34" style="edgeStyle=orthogonalEdgeStyle;rounded=1;jumpStyle=arc;orthogonalLoop=1;jettySize=auto;html=1;entryX=0;entryY=0.5;entryDx=0;entryDy=0;fontColor=#000000;" edge="1" parent="dNxyNK7c78bLwvsdeMH5-21" source="jTv7qT2MNvlc-mNZcFPQ-24" target="jTv7qT2MNvlc-mNZcFPQ-25">
          <mxGeometry relative="1" as="geometry" />
        </mxCell>
        <mxCell id="jTv7qT2MNvlc-mNZcFPQ-35" value="sh:path" style="edgeLabel;html=1;align=center;verticalAlign=middle;resizable=0;points=[];fontColor=#000000;" vertex="1" connectable="0" parent="jTv7qT2MNvlc-mNZcFPQ-34">
          <mxGeometry x="-0.7447" y="2" relative="1" as="geometry">
            <mxPoint as="offset" />
          </mxGeometry>
        </mxCell>
        <mxCell id="jTv7qT2MNvlc-mNZcFPQ-24" value="gwsl:MaximaalWattShape" style="swimlane;fontStyle=0;childLayout=stackLayout;horizontal=1;startSize=26;fillColor=none;horizontalStack=0;resizeParent=1;resizeParentMax=0;resizeLast=0;collapsible=1;marginBottom=0;fontColor=#994C00;" vertex="1" parent="dNxyNK7c78bLwvsdeMH5-21">
          <mxGeometry x="530" y="30" width="160" height="52" as="geometry" />
        </mxCell>
        <mxCell id="jTv7qT2MNvlc-mNZcFPQ-25" value="gwsl:maximaalWatt" style="swimlane;fontStyle=0;childLayout=stackLayout;horizontal=1;startSize=26;fillColor=none;horizontalStack=0;resizeParent=1;resizeParentMax=0;resizeLast=0;collapsible=1;marginBottom=0;fontColor=#994C00;" vertex="1" parent="dNxyNK7c78bLwvsdeMH5-21">
          <mxGeometry x="650" y="110" width="160" height="52" as="geometry" />
        </mxCell>
        <mxCell id="jTv7qT2MNvlc-mNZcFPQ-26" value="qudt:Watt" style="swimlane;fontStyle=0;childLayout=stackLayout;horizontal=1;startSize=26;fillColor=none;horizontalStack=0;resizeParent=1;resizeParentMax=0;resizeLast=0;collapsible=1;marginBottom=0;fontColor=#994C00;" vertex="1" parent="dNxyNK7c78bLwvsdeMH5-21">
          <mxGeometry x="1200" y="50" width="160" height="52" as="geometry" />
        </mxCell>
        <mxCell id="ITeB4xRi5K-im_U4vZZ5-28" value="nen2660:hasUnit" style="edgeStyle=orthogonalEdgeStyle;rounded=1;orthogonalLoop=1;jettySize=auto;html=1;entryX=0;entryY=0.5;entryDx=0;entryDy=0;fillColor=#f8cecc;jumpStyle=arc;strokeColor=#0A0504;exitX=0.75;exitY=0;exitDx=0;exitDy=0;" parent="dNxyNK7c78bLwvsdeMH5-21" source="jTv7qT2MNvlc-mNZcFPQ-25" target="jTv7qT2MNvlc-mNZcFPQ-26" edge="1">
          <mxGeometry relative="1" as="geometry">
            <mxPoint x="1325" y="-186" as="sourcePoint" />
            <mxPoint x="1445" y="-192" as="targetPoint" />
          </mxGeometry>
        </mxCell>
        <mxCell id="dNxyNK7c78bLwvsdeMH5-22" value="GWSL &lt;i&gt;voorbeeld&lt;/i&gt; dataset (M0)" style="swimlane;html=1;startSize=20;horizontal=0;" parent="dNxyNK7c78bLwvsdeMH5-19" vertex="1">
          <mxGeometry x="20" y="920" width="1610" height="230" as="geometry">
            <mxRectangle x="20" y="800" width="1540" height="20" as="alternateBounds" />
          </mxGeometry>
        </mxCell>
        <mxCell id="jTv7qT2MNvlc-mNZcFPQ-6" style="edgeStyle=orthogonalEdgeStyle;rounded=1;orthogonalLoop=1;jettySize=auto;html=1;entryX=0.25;entryY=0;entryDx=0;entryDy=0;fontColor=#000000;jumpStyle=arc;exitX=0.75;exitY=0;exitDx=0;exitDy=0;" edge="1" parent="dNxyNK7c78bLwvsdeMH5-22" source="ITeB4xRi5K-im_U4vZZ5-105" target="jTv7qT2MNvlc-mNZcFPQ-5">
          <mxGeometry relative="1" as="geometry">
            <Array as="points">
              <mxPoint x="180" y="9.5" />
              <mxPoint x="1100" y="9.5" />
            </Array>
          </mxGeometry>
        </mxCell>
        <mxCell id="jTv7qT2MNvlc-mNZcFPQ-7" value="gwsl:opleverDatum" style="edgeLabel;html=1;align=center;verticalAlign=middle;resizable=0;points=[];fontColor=#000000;" vertex="1" connectable="0" parent="jTv7qT2MNvlc-mNZcFPQ-6">
          <mxGeometry x="0.2604" y="-1" relative="1" as="geometry">
            <mxPoint as="offset" />
          </mxGeometry>
        </mxCell>
        <mxCell id="jTv7qT2MNvlc-mNZcFPQ-30" style="edgeStyle=orthogonalEdgeStyle;rounded=1;jumpStyle=arc;orthogonalLoop=1;jettySize=auto;html=1;entryX=0;entryY=0.5;entryDx=0;entryDy=0;fontColor=#000000;" edge="1" parent="dNxyNK7c78bLwvsdeMH5-22" source="ITeB4xRi5K-im_U4vZZ5-105" target="jTv7qT2MNvlc-mNZcFPQ-29">
          <mxGeometry relative="1" as="geometry" />
        </mxCell>
        <mxCell id="jTv7qT2MNvlc-mNZcFPQ-31" value="gwsl:maximaalWatt" style="edgeLabel;html=1;align=center;verticalAlign=middle;resizable=0;points=[];fontColor=#000000;" vertex="1" connectable="0" parent="jTv7qT2MNvlc-mNZcFPQ-30">
          <mxGeometry x="0.4469" y="3" relative="1" as="geometry">
            <mxPoint as="offset" />
          </mxGeometry>
        </mxCell>
        <mxCell id="ITeB4xRi5K-im_U4vZZ5-105" value="ex:Armatuur_43" style="swimlane;fontStyle=0;childLayout=stackLayout;horizontal=1;startSize=26;fillColor=none;horizontalStack=0;resizeParent=1;resizeParentMax=0;resizeLast=0;collapsible=1;marginBottom=0;fontColor=#009900;" parent="dNxyNK7c78bLwvsdeMH5-22" vertex="1">
          <mxGeometry x="60" y="39.5" width="160" height="52" as="geometry" />
        </mxCell>
        <mxCell id="ITeB4xRi5K-im_U4vZZ5-114" value="ex:Gebied_ABC" style="swimlane;fontStyle=0;childLayout=stackLayout;horizontal=1;startSize=26;fillColor=none;horizontalStack=0;resizeParent=1;resizeParentMax=0;resizeLast=0;collapsible=1;marginBottom=0;fontColor=#009900;" parent="dNxyNK7c78bLwvsdeMH5-22" vertex="1">
          <mxGeometry x="260" y="39.5" width="160" height="52" as="geometry" />
        </mxCell>
        <mxCell id="ITeB4xRi5K-im_U4vZZ5-115" value="ex:Gebied_XYZ" style="swimlane;fontStyle=0;childLayout=stackLayout;horizontal=1;startSize=26;fillColor=none;horizontalStack=0;resizeParent=1;resizeParentMax=0;resizeLast=0;collapsible=1;marginBottom=0;fontColor=#009900;" parent="dNxyNK7c78bLwvsdeMH5-22" vertex="1">
          <mxGeometry x="260" y="91.5" width="160" height="52" as="geometry" />
        </mxCell>
        <mxCell id="ITeB4xRi5K-im_U4vZZ5-129" style="edgeStyle=orthogonalEdgeStyle;rounded=1;orthogonalLoop=1;jettySize=auto;html=1;entryX=0.25;entryY=1;entryDx=0;entryDy=0;startArrow=classic;startFill=1;endArrow=none;endFill=0;exitX=0.75;exitY=1;exitDx=0;exitDy=0;" parent="dNxyNK7c78bLwvsdeMH5-22" source="ITeB4xRi5K-im_U4vZZ5-105" target="ITeB4xRi5K-im_U4vZZ5-115" edge="1">
          <mxGeometry relative="1" as="geometry">
            <mxPoint x="170.00000000000045" y="153.45000000000005" as="sourcePoint" />
            <mxPoint x="289.99999999999955" y="153.45000000000005" as="targetPoint" />
            <Array as="points">
              <mxPoint x="180" y="179.5" />
              <mxPoint x="300" y="179.5" />
            </Array>
          </mxGeometry>
        </mxCell>
        <mxCell id="ITeB4xRi5K-im_U4vZZ5-130" value="nen2660:contains" style="edgeLabel;html=1;align=center;verticalAlign=middle;resizable=0;points=[];" parent="ITeB4xRi5K-im_U4vZZ5-129" vertex="1" connectable="0">
          <mxGeometry x="0.2111" y="-2" relative="1" as="geometry">
            <mxPoint x="-1" y="-3" as="offset" />
          </mxGeometry>
        </mxCell>
        <mxCell id="jTv7qT2MNvlc-mNZcFPQ-5" value="2020-07-26^^xsd:date" style="html=1;fontColor=#009900;" vertex="1" parent="dNxyNK7c78bLwvsdeMH5-22">
          <mxGeometry x="1060" y="39.5" width="160" height="50" as="geometry" />
        </mxCell>
        <mxCell id="jTv7qT2MNvlc-mNZcFPQ-8" value="POINT (51.823444 5.777150)&lt;br&gt;^^geo:wktLiteral" style="html=1;fontColor=#009900;" vertex="1" parent="dNxyNK7c78bLwvsdeMH5-22">
          <mxGeometry x="460" y="39.5" width="160" height="50" as="geometry" />
        </mxCell>
        <mxCell id="jTv7qT2MNvlc-mNZcFPQ-9" style="edgeStyle=orthogonalEdgeStyle;rounded=1;orthogonalLoop=1;jettySize=auto;html=1;entryX=0.25;entryY=1;entryDx=0;entryDy=0;fontColor=#000000;jumpStyle=arc;exitX=0.5;exitY=1;exitDx=0;exitDy=0;" edge="1" parent="dNxyNK7c78bLwvsdeMH5-22" source="ITeB4xRi5K-im_U4vZZ5-105" target="jTv7qT2MNvlc-mNZcFPQ-8">
          <mxGeometry relative="1" as="geometry">
            <mxPoint x="190" y="49.5" as="sourcePoint" />
            <mxPoint x="1110" y="49.5" as="targetPoint" />
            <Array as="points">
              <mxPoint x="140" y="189.5" />
              <mxPoint x="500" y="189.5" />
            </Array>
          </mxGeometry>
        </mxCell>
        <mxCell id="jTv7qT2MNvlc-mNZcFPQ-10" value="nen2660:hasBoundary" style="edgeLabel;html=1;align=center;verticalAlign=middle;resizable=0;points=[];fontColor=#000000;" vertex="1" connectable="0" parent="jTv7qT2MNvlc-mNZcFPQ-9">
          <mxGeometry x="0.2604" y="-1" relative="1" as="geometry">
            <mxPoint as="offset" />
          </mxGeometry>
        </mxCell>
        <mxCell id="jTv7qT2MNvlc-mNZcFPQ-29" value="240 W" style="html=1;fontColor=#009900;" vertex="1" parent="dNxyNK7c78bLwvsdeMH5-22">
          <mxGeometry x="820" y="109.5" width="160" height="50" as="geometry" />
        </mxCell>
        <mxCell id="jTv7qT2MNvlc-mNZcFPQ-12" value="" style="endArrow=block;endSize=16;endFill=0;html=1;entryX=0.5;entryY=1;entryDx=0;entryDy=0;exitX=0.5;exitY=0;exitDx=0;exitDy=0;" edge="1" parent="dNxyNK7c78bLwvsdeMH5-19" source="jTv7qT2MNvlc-mNZcFPQ-11" target="ITeB4xRi5K-im_U4vZZ5-101">
          <mxGeometry width="160" relative="1" as="geometry">
            <mxPoint x="1490" y="634" as="sourcePoint" />
            <mxPoint x="1490" y="456" as="targetPoint" />
          </mxGeometry>
        </mxCell>
        <mxCell id="jTv7qT2MNvlc-mNZcFPQ-22" style="edgeStyle=orthogonalEdgeStyle;rounded=1;jumpStyle=arc;orthogonalLoop=1;jettySize=auto;html=1;entryX=0.5;entryY=1;entryDx=0;entryDy=0;fontColor=#009900;" edge="1" parent="dNxyNK7c78bLwvsdeMH5-19" source="ITeB4xRi5K-im_U4vZZ5-114" target="jTv7qT2MNvlc-mNZcFPQ-19">
          <mxGeometry relative="1" as="geometry">
            <Array as="points">
              <mxPoint x="460" y="946" />
              <mxPoint x="460" y="830" />
              <mxPoint x="1460" y="830" />
            </Array>
          </mxGeometry>
        </mxCell>
        <mxCell id="jTv7qT2MNvlc-mNZcFPQ-23" value="gwsl:gebiedsType" style="edgeLabel;html=1;align=center;verticalAlign=middle;resizable=0;points=[];" vertex="1" connectable="0" parent="jTv7qT2MNvlc-mNZcFPQ-22">
          <mxGeometry x="0.5828" y="8" relative="1" as="geometry">
            <mxPoint as="offset" />
          </mxGeometry>
        </mxCell>
        <mxCell id="ITeB4xRi5K-im_U4vZZ5-27" value="" style="endArrow=block;endSize=16;endFill=0;html=1;exitX=0.5;exitY=0;exitDx=0;exitDy=0;dashed=1;entryX=0.5;entryY=1;entryDx=0;entryDy=0;" parent="dNxyNK7c78bLwvsdeMH5-19" source="ITeB4xRi5K-im_U4vZZ5-131" target="ITeB4xRi5K-im_U4vZZ5-25" edge="1">
          <mxGeometry x="-0.5652" width="160" relative="1" as="geometry">
            <mxPoint x="725" y="68" as="sourcePoint" />
            <mxPoint x="1160" y="70" as="targetPoint" />
            <mxPoint as="offset" />
            <Array as="points" />
          </mxGeometry>
        </mxCell>
        <mxCell id="ITeB4xRi5K-im_U4vZZ5-91" value="rdf:type" style="edgeLabel;html=1;align=center;verticalAlign=middle;resizable=0;points=[];" parent="ITeB4xRi5K-im_U4vZZ5-27" vertex="1" connectable="0">
          <mxGeometry x="0.1231" y="3" relative="1" as="geometry">
            <mxPoint x="3" y="3" as="offset" />
          </mxGeometry>
        </mxCell>
        <mxCell id="ITeB4xRi5K-im_U4vZZ5-132" value="gwsl:OpleverDatumShape" style="swimlane;fontStyle=0;childLayout=stackLayout;horizontal=1;startSize=26;fillColor=none;horizontalStack=0;resizeParent=1;resizeParentMax=0;resizeLast=0;collapsible=1;marginBottom=0;fontColor=#994C00;" parent="1" vertex="1">
          <mxGeometry x="920" y="670" width="160" height="52" as="geometry" />
        </mxCell>
        <mxCell id="ITeB4xRi5K-im_U4vZZ5-133" value="" style="endArrow=classic;html=1;exitX=0.75;exitY=1;exitDx=0;exitDy=0;entryX=0.25;entryY=1;entryDx=0;entryDy=0;jumpStyle=arc;" parent="1" source="ITeB4xRi5K-im_U4vZZ5-110" target="ITeB4xRi5K-im_U4vZZ5-132" edge="1">
          <mxGeometry width="50" height="50" relative="1" as="geometry">
            <mxPoint x="170.00000000000045" y="585" as="sourcePoint" />
            <mxPoint x="889.9999999999995" y="585" as="targetPoint" />
            <Array as="points">
              <mxPoint x="240" y="760" />
              <mxPoint x="960" y="760" />
            </Array>
          </mxGeometry>
        </mxCell>
        <mxCell id="ITeB4xRi5K-im_U4vZZ5-134" value="sh:property" style="edgeLabel;html=1;align=center;verticalAlign=middle;resizable=0;points=[];" parent="ITeB4xRi5K-im_U4vZZ5-133" vertex="1" connectable="0">
          <mxGeometry x="0.6088" y="1" relative="1" as="geometry">
            <mxPoint as="offset" />
          </mxGeometry>
        </mxCell>
        <mxCell id="ITeB4xRi5K-im_U4vZZ5-135" style="edgeStyle=orthogonalEdgeStyle;rounded=1;jumpStyle=arc;orthogonalLoop=1;jettySize=auto;html=1;entryX=0.25;entryY=1;entryDx=0;entryDy=0;exitX=0.75;exitY=1;exitDx=0;exitDy=0;" parent="1" source="ITeB4xRi5K-im_U4vZZ5-132" target="ITeB4xRi5K-im_U4vZZ5-131" edge="1">
          <mxGeometry relative="1" as="geometry">
            <mxPoint x="1210" y="560" as="sourcePoint" />
            <mxPoint x="1290" y="935" as="targetPoint" />
            <Array as="points">
              <mxPoint x="1040" y="760" />
              <mxPoint x="1160" y="760" />
            </Array>
          </mxGeometry>
        </mxCell>
        <mxCell id="ITeB4xRi5K-im_U4vZZ5-136" value="sh:path" style="edgeLabel;html=1;align=center;verticalAlign=middle;resizable=0;points=[];" parent="ITeB4xRi5K-im_U4vZZ5-135" vertex="1" connectable="0">
          <mxGeometry x="0.0712" y="-1" relative="1" as="geometry">
            <mxPoint as="offset" />
          </mxGeometry>
        </mxCell>
        <mxCell id="ITeB4xRi5K-im_U4vZZ5-24" value="gwsl:Attribuut" style="swimlane;fontStyle=0;childLayout=stackLayout;horizontal=1;startSize=26;horizontalStack=0;resizeParent=1;resizeParentMax=0;resizeLast=0;collapsible=1;marginBottom=0;strokeColor=#050302;fillColor=#FFFFFF;fontColor=#0000FF;" parent="1" vertex="1">
          <mxGeometry x="1760" y="570" width="160" height="52" as="geometry" />
        </mxCell>
        <mxCell id="ITeB4xRi5K-im_U4vZZ5-88" value="gwsl:AttribuutShape" style="swimlane;fontStyle=0;childLayout=stackLayout;horizontal=1;startSize=26;fillColor=none;horizontalStack=0;resizeParent=1;resizeParentMax=0;resizeLast=0;collapsible=1;marginBottom=0;fontColor=#0000FF;" parent="1" vertex="1">
          <mxGeometry x="1740" y="750" width="160" height="52" as="geometry" />
        </mxCell>
        <mxCell id="ITeB4xRi5K-im_U4vZZ5-89" value="" style="endArrow=block;endSize=16;endFill=0;html=1;exitX=0.5;exitY=0;exitDx=0;exitDy=0;entryX=0.5;entryY=1;entryDx=0;entryDy=0;dashed=1;" parent="1" source="ITeB4xRi5K-im_U4vZZ5-132" target="ITeB4xRi5K-im_U4vZZ5-79" edge="1">
          <mxGeometry width="160" relative="1" as="geometry">
            <mxPoint x="810" y="450" as="sourcePoint" />
            <mxPoint x="810" y="264" as="targetPoint" />
          </mxGeometry>
        </mxCell>
        <mxCell id="ITeB4xRi5K-im_U4vZZ5-90" value="rdf:type" style="edgeLabel;html=1;align=center;verticalAlign=middle;resizable=0;points=[];" parent="ITeB4xRi5K-im_U4vZZ5-89" vertex="1" connectable="0">
          <mxGeometry x="0.22" y="1" relative="1" as="geometry">
            <mxPoint as="offset" />
          </mxGeometry>
        </mxCell>
        <mxCell id="jTv7qT2MNvlc-mNZcFPQ-14" value="gwsl:GebiedstypeShape" style="swimlane;fontStyle=0;childLayout=stackLayout;horizontal=1;startSize=26;fillColor=none;horizontalStack=0;resizeParent=1;resizeParentMax=0;resizeLast=0;collapsible=1;marginBottom=0;fontColor=#994C00;" vertex="1" parent="1">
          <mxGeometry x="930" y="780" width="160" height="52" as="geometry" />
        </mxCell>
        <mxCell id="jTv7qT2MNvlc-mNZcFPQ-15" value="" style="endArrow=classic;html=1;exitX=0.75;exitY=1;exitDx=0;exitDy=0;entryX=0;entryY=0.5;entryDx=0;entryDy=0;jumpStyle=arc;" edge="1" parent="1" source="ITeB4xRi5K-im_U4vZZ5-116" target="jTv7qT2MNvlc-mNZcFPQ-14">
          <mxGeometry width="50" height="50" relative="1" as="geometry">
            <mxPoint x="250" y="732" as="sourcePoint" />
            <mxPoint x="970" y="732" as="targetPoint" />
            <Array as="points">
              <mxPoint x="440" y="810" />
            </Array>
          </mxGeometry>
        </mxCell>
        <mxCell id="jTv7qT2MNvlc-mNZcFPQ-16" value="sh:property" style="edgeLabel;html=1;align=center;verticalAlign=middle;resizable=0;points=[];" vertex="1" connectable="0" parent="jTv7qT2MNvlc-mNZcFPQ-15">
          <mxGeometry x="0.6088" y="1" relative="1" as="geometry">
            <mxPoint as="offset" />
          </mxGeometry>
        </mxCell>
        <mxCell id="jTv7qT2MNvlc-mNZcFPQ-17" style="edgeStyle=orthogonalEdgeStyle;rounded=1;jumpStyle=arc;orthogonalLoop=1;jettySize=auto;html=1;" edge="1" parent="1">
          <mxGeometry relative="1" as="geometry">
            <mxPoint x="1090" y="810" as="sourcePoint" />
            <mxPoint x="1190" y="800" as="targetPoint" />
          </mxGeometry>
        </mxCell>
        <mxCell id="jTv7qT2MNvlc-mNZcFPQ-18" value="sh:path" style="edgeLabel;html=1;align=center;verticalAlign=middle;resizable=0;points=[];" vertex="1" connectable="0" parent="jTv7qT2MNvlc-mNZcFPQ-17">
          <mxGeometry x="0.0712" y="-1" relative="1" as="geometry">
            <mxPoint as="offset" />
          </mxGeometry>
        </mxCell>
        <mxCell id="jTv7qT2MNvlc-mNZcFPQ-27" value="" style="endArrow=block;endSize=16;endFill=0;html=1;exitX=0.5;exitY=0;exitDx=0;exitDy=0;dashed=1;" edge="1" parent="1" source="jTv7qT2MNvlc-mNZcFPQ-26">
          <mxGeometry x="-0.5652" width="160" relative="1" as="geometry">
            <mxPoint x="1210" y="680" as="sourcePoint" />
            <mxPoint x="1460" y="350" as="targetPoint" />
            <mxPoint as="offset" />
            <Array as="points" />
          </mxGeometry>
        </mxCell>
        <mxCell id="jTv7qT2MNvlc-mNZcFPQ-28" value="rdf:type" style="edgeLabel;html=1;align=center;verticalAlign=middle;resizable=0;points=[];" vertex="1" connectable="0" parent="jTv7qT2MNvlc-mNZcFPQ-27">
          <mxGeometry x="0.1231" y="3" relative="1" as="geometry">
            <mxPoint x="3" y="3" as="offset" />
          </mxGeometry>
        </mxCell>
      </root>
    </mxGraphModel>
  </diagram>
</mxfile>
